<svg width="45" height="22" viewBox="0 0 45 22" fill="none" xmlns="http://www.w3.org/2000/svg">
<path d="M2.55 21L0.18 0.899999H7.11L8.07 13.98H8.61L9.96 1.2H17.55L19.05 13.98H19.59L20.19 0.899999H27.18L24.96 21H14.79L13.8 8.64L13.5 8.61L12.48 21H2.55ZM44.6768 9.18V20.4C41.0568 20.98 38.3768 21.27 36.6368 21.27C34.8968 21.27 33.4068 21.08 32.1668 20.7C30.9468 20.3 29.9868 19.65 29.2868 18.75C28.5868 17.85 28.0968 16.79 27.8168 15.57C27.5568 14.35 27.4268 12.8 27.4268 10.92C27.4268 7.06 28.1468 4.36 29.5868 2.82C31.0268 1.28 33.4568 0.509999 36.8768 0.509999C37.8968 0.509999 39.0468 0.599999 40.3268 0.779999C41.6068 0.94 42.6268 1.1 43.3868 1.26L44.5268 1.53V6.78C41.6468 6.52 39.5968 6.39 38.3768 6.39C37.1768 6.39 36.3868 6.45 36.0068 6.57C35.6468 6.67 35.3568 6.8 35.1368 6.96C34.9168 7.1 34.7568 7.39 34.6568 7.83C34.5168 8.45 34.4468 9.54 34.4468 11.1C34.4468 12.66 34.6268 13.8 34.9868 14.52C35.3468 15.22 36.0768 15.57 37.1768 15.57L38.1968 15.54V14.04H37.2968L37.2668 9.18H44.6768Z" fill="white"/>
</svg>
